# xmcd
#
# Track frame offsets:
#	150
#	15780
#	30686
#	47084
#	65296
#	79690
#	95579
#	107030
#	124237
#	136855
#	147742
#	159535
#	174557
#	187037
#	199643
#
# Disc length: 2897 seconds
#
# Revision: 1
# Processed by: cddbd v1.5.2PL0 Copyright (c) Steve Scherf et al.
# Submitted via: audiograbber 1.83.01
#
DISCID=ca0b4f0f
DTITLE=Daþâdi - Bauska Country 2006
DYEAR=2006
DGENRE=Country
TTITLE0=Dakota - Viss vçl bûs
TTITLE1=Tequila - Es mîlu, nâc lîdz
TTITLE2=Juke Box - Nekad
TTITLE3=Sestâ Jûdze - Tas, kam jânotiek
TTITLE4=Klaidonis - Kâds tu bûsi
TTITLE5=Emburgas zçni - Pusnakts stundâ
TTITLE6=Bordertown - Notici vçl
TTITLE7=I. Rubîna un Vidzemnieki - Vçlçjums
TTITLE8=Ivars Pçtersons and Band - All Shook Up
TTITLE9=Jonis /Lietuva/ - Country Blues
TTITLE10=Panhandle Swing /Nîderlande/ - You're From Texas
TTITLE11=Leif Kerstein /Dânija/ - Swinging Doors
TTITLE12=South Mountain /Kanâda/ - Excuse Me
TTITLE13=Kukuruza /Krievija/ - I Don't Know Why
TTITLE14=Sarah Jory /Anglija/ - Last Horizon
EXTD=Licenzçts no:\nKantrî mûzikas asociâcija,\nGailîtis G,\nPlatforma Rekords
EXTD=\n
EXTT0=Autors E. Zariòð
EXTT1=Autors trad. - V. Zagorskis
EXTT2=Autors I. Feldmanis
EXTT3=Autors A. Gedroviès - M. Svîíe
EXTT4=Autors M. Sloka
EXTT5=Autors trad. - A. Rullis
EXTT6=Autors trad. - I. Zuika
EXTT7=Autors G. Mucenieks - I. Rubîna
EXTT8=Autors O. Blackwell - E. Presley
EXTT9=Autors R. Gadeikio
EXTT10=Autors C. Walker
EXTT11=Autors M. Haggard
EXTT12=Autors B. Owens - H. Howard
EXTT13=Autors Sh. Colvin
EXTT14=Autors B. May
PLAYORDER=
